<?xml version="1.0" encoding="UTF-8" standalone="no"?>
<!DOCTYPE svg PUBLIC "-//W3C//DTD SVG 1.1//EN"
 "http://www.w3.org/Graphics/SVG/1.1/DTD/svg11.dtd">
<!-- Generated by graphviz version 2.40.1 (20161225.0304)
 -->
<!-- Title: G Pages: 1 -->
<svg width="314pt" height="168pt"
 viewBox="0.00 0.00 313.79 168.00" xmlns="http://www.w3.org/2000/svg" xmlns:xlink="http://www.w3.org/1999/xlink">
<g id="graph0" class="graph" transform="scale(1 1) rotate(0) translate(4 164)">
<title>G</title>
<polygon fill="#ffffff" stroke="transparent" points="-4,4 -4,-164 309.7924,-164 309.7924,4 -4,4"/>
<g id="clust1" class="cluster">
<title>cluster_Global</title>
<path fill="none" stroke="#c0c0c0" d="M20,-8C20,-8 285.7924,-8 285.7924,-8 291.7924,-8 297.7924,-14 297.7924,-20 297.7924,-20 297.7924,-140 297.7924,-140 297.7924,-146 291.7924,-152 285.7924,-152 285.7924,-152 20,-152 20,-152 14,-152 8,-146 8,-140 8,-140 8,-20 8,-20 8,-14 14,-8 20,-8"/>
<text text-anchor="middle" x="152.8962" y="-139.2" font-family="Times,serif" font-size="11.00" fill="#c0c0c0">Global</text>
</g>
<g id="clust2" class="cluster">
<title>cluster_\Thumber</title>
<path fill="none" stroke="#c0c0c0" d="M185.7924,-16C185.7924,-16 277.7924,-16 277.7924,-16 283.7924,-16 289.7924,-22 289.7924,-28 289.7924,-28 289.7924,-112 289.7924,-112 289.7924,-118 283.7924,-124 277.7924,-124 277.7924,-124 185.7924,-124 185.7924,-124 179.7924,-124 173.7924,-118 173.7924,-112 173.7924,-112 173.7924,-28 173.7924,-28 173.7924,-22 179.7924,-16 185.7924,-16"/>
<text text-anchor="middle" x="231.7924" y="-111.2" font-family="Times,serif" font-size="11.00" fill="#c0c0c0">Thumber</text>
</g>
<g id="clust3" class="cluster">
<title>cluster_\Thumber\TestSuite</title>
<path fill="none" stroke="#c0c0c0" d="M193.7924,-24C193.7924,-24 269.7924,-24 269.7924,-24 275.7924,-24 281.7924,-30 281.7924,-36 281.7924,-36 281.7924,-84 281.7924,-84 281.7924,-90 275.7924,-96 269.7924,-96 269.7924,-96 193.7924,-96 193.7924,-96 187.7924,-96 181.7924,-90 181.7924,-84 181.7924,-84 181.7924,-36 181.7924,-36 181.7924,-30 187.7924,-24 193.7924,-24"/>
<text text-anchor="middle" x="231.7924" y="-83.2" font-family="Times,serif" font-size="11.00" fill="#c0c0c0">TestSuite</text>
</g>
<g id="clust4" class="cluster">
<title>cluster_Global\Tools</title>
<path fill="none" stroke="#c0c0c0" d="M28,-16C28,-16 121.7924,-16 121.7924,-16 127.7924,-16 133.7924,-22 133.7924,-28 133.7924,-28 133.7924,-112 133.7924,-112 133.7924,-118 127.7924,-124 121.7924,-124 121.7924,-124 28,-124 28,-124 22,-124 16,-118 16,-112 16,-112 16,-28 16,-28 16,-22 22,-16 28,-16"/>
<text text-anchor="middle" x="74.8962" y="-111.2" font-family="Times,serif" font-size="11.00" fill="#c0c0c0">Tools</text>
</g>
<g id="clust5" class="cluster">
<title>cluster_Global\Tools\TestSuite</title>
<path fill="none" stroke="#c0c0c0" d="M36,-24C36,-24 113.7924,-24 113.7924,-24 119.7924,-24 125.7924,-30 125.7924,-36 125.7924,-36 125.7924,-84 125.7924,-84 125.7924,-90 119.7924,-96 113.7924,-96 113.7924,-96 36,-96 36,-96 30,-96 24,-90 24,-84 24,-84 24,-36 24,-36 24,-30 30,-24 36,-24"/>
<text text-anchor="middle" x="74.8962" y="-83.2" font-family="Times,serif" font-size="11.00" fill="#c0c0c0">TestSuite</text>
</g>
<!-- \\Thumber\\TestSuite\\TestCase -->
<g id="node1" class="node">
<title>\\Thumber\\TestSuite\\TestCase</title>
<polygon fill="none" stroke="#000000" points="273.7924,-68 189.7924,-68 189.7924,-32 273.7924,-32 273.7924,-68"/>
<text text-anchor="start" x="197.7924" y="-53.2" font-family="Courier,monospace" font-size="11.00" fill="#000000">«abstract»</text>
<text text-anchor="start" x="204.2924" y="-41.2" font-family="Courier,monospace" font-size="11.00" fill="#000000">TestCase</text>
</g>
<!-- TestCase -->
<g id="node2" class="node">
<title>TestCase</title>
<ellipse fill="none" stroke="#000000" cx="74.8962" cy="-50" rx="42.7926" ry="18"/>
<text text-anchor="middle" x="74.8962" y="-46.3" font-family="Times,serif" font-size="14.00" fill="#c0c0c0">TestCase</text>
</g>
<!-- \\Thumber\\TestSuite\\TestCase&#45;&gt;TestCase -->
<g id="edge1" class="edge">
<title>\\Thumber\\TestSuite\\TestCase&#45;&gt;TestCase</title>
<path fill="none" stroke="#000000" d="M189.7471,-50C170.8094,-50 148.235,-50 128.1322,-50"/>
<polygon fill="none" stroke="#000000" points="127.8774,-46.5001 117.8774,-50 127.8773,-53.5001 127.8774,-46.5001"/>
</g>
</g>
</svg>
