<?xml version="1.0" encoding="UTF-8" standalone="no"?>
<!DOCTYPE svg PUBLIC "-//W3C//DTD SVG 1.1//EN"
 "http://www.w3.org/Graphics/SVG/1.1/DTD/svg11.dtd">
<!-- Generated by graphviz version 2.40.1 (20161225.0304)
 -->
<!-- Title: G Pages: 1 -->
<svg width="509pt" height="492pt"
 viewBox="0.00 0.00 508.58 492.00" xmlns="http://www.w3.org/2000/svg" xmlns:xlink="http://www.w3.org/1999/xlink">
<g id="graph0" class="graph" transform="scale(1 1) rotate(0) translate(4 488)">
<title>G</title>
<polygon fill="#ffffff" stroke="transparent" points="-4,4 -4,-488 504.5836,-488 504.5836,4 -4,4"/>
<g id="clust1" class="cluster">
<title>cluster_Global</title>
<path fill="none" stroke="#c0c0c0" d="M37.3956,-44C37.3956,-44 480.5836,-44 480.5836,-44 486.5836,-44 492.5836,-50 492.5836,-56 492.5836,-56 492.5836,-464 492.5836,-464 492.5836,-470 486.5836,-476 480.5836,-476 480.5836,-476 37.3956,-476 37.3956,-476 31.3956,-476 25.3956,-470 25.3956,-464 25.3956,-464 25.3956,-56 25.3956,-56 25.3956,-50 31.3956,-44 37.3956,-44"/>
<text text-anchor="middle" x="258.9896" y="-463.2" font-family="Times,serif" font-size="11.00" fill="#c0c0c0">Global</text>
</g>
<g id="clust2" class="cluster">
<title>cluster_\Thumber</title>
<path fill="none" stroke="#c0c0c0" d="M252.5836,-52C252.5836,-52 472.5836,-52 472.5836,-52 478.5836,-52 484.5836,-58 484.5836,-64 484.5836,-64 484.5836,-436 484.5836,-436 484.5836,-442 478.5836,-448 472.5836,-448 472.5836,-448 252.5836,-448 252.5836,-448 246.5836,-448 240.5836,-442 240.5836,-436 240.5836,-436 240.5836,-64 240.5836,-64 240.5836,-58 246.5836,-52 252.5836,-52"/>
<text text-anchor="middle" x="362.5836" y="-435.2" font-family="Times,serif" font-size="11.00" fill="#c0c0c0">Thumber</text>
</g>
<g id="clust3" class="cluster">
<title>cluster_\Thumber\TestSuite</title>
<path fill="none" stroke="#c0c0c0" d="M324.5836,-294C324.5836,-294 400.5836,-294 400.5836,-294 406.5836,-294 412.5836,-300 412.5836,-306 412.5836,-306 412.5836,-408 412.5836,-408 412.5836,-414 406.5836,-420 400.5836,-420 400.5836,-420 324.5836,-420 324.5836,-420 318.5836,-420 312.5836,-414 312.5836,-408 312.5836,-408 312.5836,-306 312.5836,-306 312.5836,-300 318.5836,-294 324.5836,-294"/>
<text text-anchor="middle" x="362.5836" y="-407.2" font-family="Times,serif" font-size="11.00" fill="#c0c0c0">TestSuite</text>
</g>
<g id="clust4" class="cluster">
<title>cluster_\Thumber\Exception</title>
<path fill="none" stroke="#c0c0c0" d="M260.5836,-160C260.5836,-160 464.5836,-160 464.5836,-160 470.5836,-160 476.5836,-166 476.5836,-172 476.5836,-172 476.5836,-274 476.5836,-274 476.5836,-280 470.5836,-286 464.5836,-286 464.5836,-286 260.5836,-286 260.5836,-286 254.5836,-286 248.5836,-280 248.5836,-274 248.5836,-274 248.5836,-172 248.5836,-172 248.5836,-166 254.5836,-160 260.5836,-160"/>
<text text-anchor="middle" x="362.5836" y="-273.2" font-family="Times,serif" font-size="11.00" fill="#c0c0c0">Exception</text>
</g>
<g id="clust5" class="cluster">
<title>cluster_Global\Tools</title>
<path fill="none" stroke="#c0c0c0" d="M45.3956,-201C45.3956,-201 139.188,-201 139.188,-201 145.188,-201 151.188,-207 151.188,-213 151.188,-213 151.188,-297 151.188,-297 151.188,-303 145.188,-309 139.188,-309 139.188,-309 45.3956,-309 45.3956,-309 39.3956,-309 33.3956,-303 33.3956,-297 33.3956,-297 33.3956,-213 33.3956,-213 33.3956,-207 39.3956,-201 45.3956,-201"/>
<text text-anchor="middle" x="92.2918" y="-296.2" font-family="Times,serif" font-size="11.00" fill="#c0c0c0">Tools</text>
</g>
<g id="clust6" class="cluster">
<title>cluster_Global\Tools\TestSuite</title>
<path fill="none" stroke="#c0c0c0" d="M53.3956,-209C53.3956,-209 131.188,-209 131.188,-209 137.188,-209 143.188,-215 143.188,-221 143.188,-221 143.188,-269 143.188,-269 143.188,-275 137.188,-281 131.188,-281 131.188,-281 53.3956,-281 53.3956,-281 47.3956,-281 41.3956,-275 41.3956,-269 41.3956,-269 41.3956,-221 41.3956,-221 41.3956,-215 47.3956,-209 53.3956,-209"/>
<text text-anchor="middle" x="92.2918" y="-268.2" font-family="Times,serif" font-size="11.00" fill="#c0c0c0">TestSuite</text>
</g>
<!-- \\Thumber\\TestSuite\\TestCase -->
<g id="node1" class="node">
<title>\\Thumber\\TestSuite\\TestCase</title>
<polygon fill="none" stroke="#000000" points="404.5836,-392 320.5836,-392 320.5836,-356 404.5836,-356 404.5836,-392"/>
<text text-anchor="start" x="328.5836" y="-377.2" font-family="Courier,monospace" font-size="11.00" fill="#000000">«abstract»</text>
<text text-anchor="start" x="335.0836" y="-365.2" font-family="Courier,monospace" font-size="11.00" fill="#000000">TestCase</text>
</g>
<!-- TestCase -->
<g id="node7" class="node">
<title>TestCase</title>
<ellipse fill="none" stroke="#000000" cx="92.2918" cy="-235" rx="42.7926" ry="18"/>
<text text-anchor="middle" x="92.2918" y="-231.3" font-family="Times,serif" font-size="14.00" fill="#c0c0c0">TestCase</text>
</g>
<!-- \\Thumber\\TestSuite\\TestCase&#45;&gt;TestCase -->
<g id="edge3" class="edge">
<title>\\Thumber\\TestSuite\\TestCase&#45;&gt;TestCase</title>
<path fill="none" stroke="#000000" d="M320.3178,-372.7184C295.181,-370.1044 263.7782,-363.4191 240.5836,-347 202.1317,-319.7804 222.8137,-284.5303 184.5836,-257 172.9671,-248.6347 158.6015,-243.4137 144.6921,-240.1662"/>
<polygon fill="none" stroke="#000000" points="145.1871,-236.6953 134.6904,-238.1336 143.793,-243.5551 145.1871,-236.6953"/>
</g>
<!-- \\Thumber\\TestSuite\\TestTrait -->
<g id="node2" class="node">
<title>\\Thumber\\TestSuite\\TestTrait</title>
<polygon fill="none" stroke="#000000" points="401.0836,-338 324.0836,-338 324.0836,-302 401.0836,-302 401.0836,-338"/>
<text text-anchor="middle" x="362.5836" y="-317.2" font-family="Courier,monospace" font-size="11.00" fill="#000000">TestTrait</text>
</g>
<!-- \\Thumber\\Exception\\NotReadableImageException -->
<g id="node3" class="node">
<title>\\Thumber\\Exception\\NotReadableImageException</title>
<polygon fill="none" stroke="#000000" points="455.0836,-204 270.0836,-204 270.0836,-168 455.0836,-168 455.0836,-204"/>
<text text-anchor="middle" x="362.5836" y="-183.2" font-family="Courier,monospace" font-size="11.00" fill="#000000">NotReadableImageException</text>
</g>
<!-- NotReadableException -->
<g id="node9" class="node">
<title>NotReadableException</title>
<ellipse fill="none" stroke="#000000" cx="92.2918" cy="-18" rx="92.0841" ry="18"/>
<text text-anchor="middle" x="92.2918" y="-14.3" font-family="Times,serif" font-size="14.00" fill="#000000">NotReadableException</text>
</g>
<!-- \\Thumber\\Exception\\NotReadableImageException&#45;&gt;NotReadableException -->
<g id="edge1" class="edge">
<title>\\Thumber\\Exception\\NotReadableImageException&#45;&gt;NotReadableException</title>
<path fill="none" stroke="#000000" d="M270.0087,-175.4419C259.7783,-172.4958 249.7563,-168.7522 240.5836,-164 184.9274,-135.1654 136.5989,-78.356 111.2289,-44.7338"/>
<polygon fill="none" stroke="#000000" points="113.7543,-42.2632 104.9887,-36.3122 108.13,-46.4306 113.7543,-42.2632"/>
</g>
<!-- \\Thumber\\Exception\\UnsupportedImageTypeException -->
<g id="node4" class="node">
<title>\\Thumber\\Exception\\UnsupportedImageTypeException</title>
<polygon fill="none" stroke="#000000" points="468.5836,-258 256.5836,-258 256.5836,-222 468.5836,-222 468.5836,-258"/>
<text text-anchor="middle" x="362.5836" y="-237.2" font-family="Courier,monospace" font-size="11.00" fill="#000000">UnsupportedImageTypeException</text>
</g>
<!-- Exception -->
<g id="node8" class="node">
<title>Exception</title>
<ellipse fill="none" stroke="#000000" cx="92.2918" cy="-335" rx="46.2923" ry="18"/>
<text text-anchor="middle" x="92.2918" y="-331.3" font-family="Times,serif" font-size="14.00" fill="#c0c0c0">Exception</text>
</g>
<!-- \\Thumber\\Exception\\UnsupportedImageTypeException&#45;&gt;Exception -->
<g id="edge2" class="edge">
<title>\\Thumber\\Exception\\UnsupportedImageTypeException&#45;&gt;Exception</title>
<path fill="none" stroke="#000000" d="M311.1076,-258.0924C260.5237,-275.8712 184.1574,-302.7118 136.3139,-319.5275"/>
<polygon fill="none" stroke="#000000" points="135.1232,-316.236 126.8495,-322.8539 137.4443,-322.84 135.1232,-316.236"/>
</g>
<!-- \\Thumber\\ThumbCreator -->
<g id="node5" class="node">
<title>\\Thumber\\ThumbCreator</title>
<polygon fill="none" stroke="#000000" points="411.5836,-150 313.5836,-150 313.5836,-114 411.5836,-114 411.5836,-150"/>
<text text-anchor="middle" x="362.5836" y="-129.2" font-family="Courier,monospace" font-size="11.00" fill="#000000">ThumbCreator</text>
</g>
<!-- \\Thumber\\ThumbManager -->
<g id="node6" class="node">
<title>\\Thumber\\ThumbManager</title>
<polygon fill="none" stroke="#000000" points="411.5836,-96 313.5836,-96 313.5836,-60 411.5836,-60 411.5836,-96"/>
<text text-anchor="middle" x="362.5836" y="-75.2" font-family="Courier,monospace" font-size="11.00" fill="#000000">ThumbManager</text>
</g>
</g>
</svg>
